<?xml version="1.0" encoding="UTF-8" standalone="no"?>
<!-- Created with Inkscape (http://www.inkscape.org/) -->

<svg
   width="500"
   height="500"
   viewBox="0 0 500 500"
   version="1.1"
   id="svg1"
   inkscape:version="1.3.2 (091e20ef0f, 2023-11-25)"
   sodipodi:docname="icon.svg"
   xmlns:inkscape="http://www.inkscape.org/namespaces/inkscape"
   xmlns:sodipodi="http://sodipodi.sourceforge.net/DTD/sodipodi-0.dtd"
   xmlns:xlink="http://www.w3.org/1999/xlink"
   xmlns="http://www.w3.org/2000/svg"
   xmlns:svg="http://www.w3.org/2000/svg">
  <sodipodi:namedview
     id="namedview1"
     pagecolor="#ffffff"
     bordercolor="#666666"
     borderopacity="1.0"
     inkscape:showpageshadow="2"
     inkscape:pageopacity="0.0"
     inkscape:pagecheckerboard="0"
     inkscape:deskcolor="#d1d1d1"
     inkscape:document-units="mm"
     inkscape:zoom="0.97379726"
     inkscape:cx="-7.7018085"
     inkscape:cy="155.06308"
     inkscape:window-width="1750"
     inkscape:window-height="1310"
     inkscape:window-x="26"
     inkscape:window-y="23"
     inkscape:window-maximized="0"
     inkscape:current-layer="layer3" />
  <defs
     id="defs1">
    <linearGradient
       id="linearGradient35"
       inkscape:collect="always">
      <stop
         style="stop-color:#d44a4a;stop-opacity:1;"
         offset="0"
         id="stop35" />
      <stop
         style="stop-color:#782121;stop-opacity:1;"
         offset="1"
         id="stop36" />
    </linearGradient>
    <linearGradient
       inkscape:collect="always"
       xlink:href="#linearGradient35"
       id="linearGradient36"
       x1="50.002342"
       y1="1.0183415"
       x2="50.002342"
       y2="100"
       gradientUnits="userSpaceOnUse" />
    <linearGradient
       inkscape:collect="always"
       xlink:href="#linearGradient35"
       id="linearGradient37"
       gradientUnits="userSpaceOnUse"
       x1="50.002342"
       y1="1.0183415"
       x2="50.002342"
       y2="100"
       gradientTransform="matrix(4.1326352,0,0,4.1326352,43.38856,42.022512)" />
    <linearGradient
       inkscape:collect="always"
       xlink:href="#linearGradient35"
       id="linearGradient38"
       gradientUnits="userSpaceOnUse"
       x1="50.002342"
       y1="1.0183415"
       x2="50.002342"
       y2="100"
       gradientTransform="matrix(4.1326352,0,0,4.1326352,43.38856,42.022512)" />
    <linearGradient
       inkscape:collect="always"
       xlink:href="#linearGradient35"
       id="linearGradient39"
       gradientUnits="userSpaceOnUse"
       x1="50.002342"
       y1="1.0183415"
       x2="50.002342"
       y2="100"
       gradientTransform="matrix(4.1326352,0,0,4.1326352,43.38856,42.022512)" />
    <linearGradient
       inkscape:collect="always"
       xlink:href="#linearGradient35"
       id="linearGradient40"
       gradientUnits="userSpaceOnUse"
       x1="50.002342"
       y1="1.0183415"
       x2="50.002342"
       y2="100"
       gradientTransform="matrix(4.1326352,0,0,4.1326352,43.38856,42.022512)" />
    <linearGradient
       inkscape:collect="always"
       xlink:href="#linearGradient35"
       id="linearGradient41"
       gradientUnits="userSpaceOnUse"
       x1="50.002342"
       y1="1.0183415"
       x2="50.002342"
       y2="100"
       gradientTransform="matrix(4.1326352,0,0,4.1326352,43.38856,42.022512)" />
    <linearGradient
       inkscape:collect="always"
       xlink:href="#linearGradient35"
       id="linearGradient42"
       gradientUnits="userSpaceOnUse"
       x1="50.002342"
       y1="1.0183415"
       x2="50.002342"
       y2="100"
       gradientTransform="matrix(4.1326352,0,0,4.1326352,43.38856,42.022512)" />
    <linearGradient
       inkscape:collect="always"
       xlink:href="#linearGradient35"
       id="linearGradient43"
       gradientUnits="userSpaceOnUse"
       x1="50.002342"
       y1="1.0183415"
       x2="50.002342"
       y2="100"
       gradientTransform="matrix(4.1326352,0,0,4.1326352,43.38856,42.022512)" />
    <linearGradient
       inkscape:collect="always"
       xlink:href="#linearGradient35"
       id="linearGradient44"
       gradientUnits="userSpaceOnUse"
       x1="50.002342"
       y1="1.0183415"
       x2="50.002342"
       y2="100"
       gradientTransform="matrix(4.1326352,0,0,4.1326352,43.38856,42.022512)" />
    <linearGradient
       inkscape:collect="always"
       xlink:href="#linearGradient35"
       id="linearGradient45"
       gradientUnits="userSpaceOnUse"
       x1="50.002342"
       y1="1.0183415"
       x2="50.002342"
       y2="100"
       gradientTransform="matrix(4.1326352,0,0,4.1326352,43.38856,42.022512)" />
  </defs>
  <g
     inkscape:groupmode="layer"
     id="layer4"
     inkscape:label="Background">
    <rect
       x="10"
       y="10"
       width="480"
       height="479.99927"
       rx="75.000008"
       fill="#252525"
       shape-rendering="crispEdges"
       id="rect1"
       style="stroke-width:1.92" />
  </g>
  <g
     inkscape:groupmode="layer"
     id="layer3"
     inkscape:label="Fill"
     style="display:inline;fill:url(#linearGradient36);stroke-width:1.00157;stroke-dasharray:none"
     transform="translate(0,-0.41338608)">
    <path
       style="display:inline;fill:url(#linearGradient37);stroke:none;stroke-width:4.13912;stroke-dasharray:none"
       d="m 112.71319,69.982812 0.14932,-17.63234 1.21602,-2.18885 c 0.89801,-1.61637 1.85212,-2.50687 3.64809,-3.40486 l 2.43207,-1.21602 H 250.03 379.90131 l 2.43206,1.21602 c 1.94563,0.97282 2.67524,1.70243 3.64806,3.64807 l 1.21602,2.43205 0.14452,17.38913 0.14452,17.38914 H 250.02517 112.56384 Z"
       id="path1" />
    <path
       style="display:inline;fill:url(#linearGradient38);stroke:none;stroke-width:4.13912;stroke-dasharray:none"
       d="M 112.61934,315.25476 V 280.71969 H 250.03 387.44066 v 34.53507 34.53506 H 250.03 112.61934 Z"
       id="path9" />
    <path
       style="display:inline;fill:url(#linearGradient39);stroke:none;stroke-width:4.13912;stroke-dasharray:none"
       d="m 209.95279,434.66239 v -20.62364 h 40.03412 40.03412 v 20.62364 20.62364 h -40.03412 -40.03412 z m 72.30405,0.24259 v -15.04312 h -15.28576 -15.28575 v 15.04312 15.04313 h 15.28575 15.28576 z m -46.7007,13.33407 c 3.54256,-1.05203 7.51437,-4.77974 8.82496,-8.28259 1.44741,-3.86856 1.32132,-7.51602 -0.38446,-11.12167 -2.5147,-5.31554 -7.04546,-8.15858 -13.00735,-8.16211 -8.13221,-0.005 -14.24283,6.14506 -14.24283,14.33433 0,9.55836 9.2555,16.06932 18.80968,13.23204 z"
       id="path23" />
    <path
       style="display:inline;fill:url(#linearGradient40);stroke:none;stroke-width:4.13912;stroke-dasharray:none"
       d="m 193.93914,434.66239 v -20.62364 h 6.06577 6.06578 v 20.62364 20.62364 h -6.06578 -6.06577 z"
       id="path24" />
    <path
       style="display:inline;fill:url(#linearGradient41);stroke:none;stroke-width:4.13912;stroke-dasharray:none"
       d="m 293.90312,434.66239 v -20.62364 h 6.06578 6.06577 v 20.62364 20.62364 h -6.06577 -6.06578 z"
       id="path25" />
    <path
       style="display:inline;fill:url(#linearGradient42);stroke:none;stroke-width:4.13912;stroke-dasharray:none"
       d="m 191.51283,375.46042 v -18.19733 h 58.23145 58.23144 v 18.19733 18.19733 h -58.23144 -58.23145 z"
       id="path26" />
    <path
       style="display:inline;fill:url(#linearGradient43);stroke:none;stroke-width:4.13912;stroke-dasharray:none"
       d="m 120.63131,272.64419 c -4.85981,-0.82635 -7.00674,-3.35641 -7.86059,-9.26338 -0.31358,-2.16947 -0.50016,-33.77491 -0.50639,-85.78866 l -0.01,-82.353719 h 137.547 137.54691 l -0.003,84.596329 c -0.002,56.65447 -0.17279,85.20849 -0.51752,86.4497 -0.66512,2.39489 -2.70693,4.79887 -4.93838,5.81436 -1.61075,0.73302 -13.17183,0.81051 -130.34397,0.87362 -70.71705,0.038 -129.62849,-0.10959 -130.91431,-0.32825 z"
       id="path28" />
    <path
       style="display:inline;fill:url(#linearGradient44);stroke:none;stroke-width:4.13912;stroke-dasharray:none"
       d="m 112.33886,375.36716 v -18.15609 h 36.07639 36.0764 v 18.15609 18.15609 h -36.07639 -36.0764 z m 32.3037,10.90154 c 4.27423,-2.02065 6.80867,-5.9595 6.82765,-10.61103 0.0145,-3.55539 -0.80871,-5.91158 -2.89256,-8.27894 -4.59551,-5.22078 -12.93014,-5.6039 -18.02445,-0.82854 -4.51393,4.23132 -4.78391,11.94941 -0.59169,16.91518 3.22437,3.81932 9.85412,5.08526 14.68105,2.80333 z m 28.77726,0.24155 c 2.34772,-1.0665 4.65371,-3.32862 6.00648,-5.89223 1.60549,-3.04253 1.46788,-7.79691 -0.31929,-11.02984 -2.30136,-4.16321 -6.06262,-6.36129 -10.88515,-6.36129 -4.82252,0 -8.58377,2.19808 -10.88515,6.36129 -1.77682,3.21432 -1.92404,7.98934 -0.33887,10.99139 1.32361,2.50668 3.69394,4.83009 6.03656,5.91707 2.54223,1.1796 7.80344,1.1865 10.38537,0.0136 z m -51.03656,-1.36326 c 3.11406,-2.80391 1.07356,-7.65768 -3.21925,-7.65768 -1.77164,0 -3.99563,2.35945 -3.99563,4.23901 0,1.93377 0.66817,3.12214 2.2519,4.00509 1.5084,0.84096 3.66008,0.58672 4.96298,-0.58642 z m -0.0542,-13.25697 c 1.18372,-1.05766 1.51651,-1.73315 1.51651,-3.07818 0,-3.88624 -5.04805,-5.86398 -7.54828,-2.95729 -3.63226,4.22275 1.88352,9.74192 6.03177,6.03547 z"
       id="path33" />
    <path
       style="display:inline;fill:url(#linearGradient45);stroke:none;stroke-width:4.13912;stroke-dasharray:none"
       d="m 315.1212,375.36716 v -18.15609 h 36.31218 36.31219 v 18.15609 18.15609 H 351.43338 315.1212 Z m 20.98561,11.14485 c 4.61978,-2.10595 7.31704,-6.2149 7.29924,-11.11955 -0.0405,-11.19466 -13.96466,-16.49786 -21.47884,-8.18055 -2.3027,2.54881 -3.09227,4.63113 -3.09227,8.15525 0,3.46114 0.7551,5.51515 2.94394,8.0081 3.28635,3.74295 9.84724,5.17929 14.32793,3.13675 z m 28.2405,0.30102 c 2.9685,-0.88636 6.62184,-4.6949 7.5557,-7.87667 0.93453,-3.18404 0.93592,-3.95691 0.0128,-7.0653 -2.13923,-7.20355 -10.50653,-10.75211 -17.40016,-7.37938 -9.02034,4.41325 -9.10889,17.22046 -0.14993,21.68491 2.76045,1.37559 6.67104,1.62493 9.98154,0.63644 z m 18.35189,-1.66605 c 3.11405,-2.80391 1.07355,-7.65768 -3.21925,-7.65768 -1.77165,0 -3.99564,2.35945 -3.99564,4.239 0,1.93378 0.66817,3.12215 2.2519,4.0051 1.50841,0.84095 3.66008,0.58672 4.96299,-0.58642 z m -0.0542,-13.25697 c 1.18372,-1.05766 1.51652,-1.73316 1.51652,-3.07818 0,-3.88624 -5.04806,-5.86398 -7.54828,-2.95729 -3.63227,4.22274 1.88352,9.74192 6.03176,6.03547 z"
       id="path34" />
  </g>
</svg>
