<?xml version="1.0" encoding="UTF-8" standalone="no"?>
<!-- Created with Inkscape (http://www.inkscape.org/) -->

<svg
   width="100"
   height="100"
   viewBox="0 0 100 100"
   version="1.1"
   id="svg1"
   inkscape:version="1.3.2 (091e20ef0f, 2023-11-25)"
   sodipodi:docname="icon.svg"
   xmlns:inkscape="http://www.inkscape.org/namespaces/inkscape"
   xmlns:sodipodi="http://sodipodi.sourceforge.net/DTD/sodipodi-0.dtd"
   xmlns:xlink="http://www.w3.org/1999/xlink"
   xmlns="http://www.w3.org/2000/svg"
   xmlns:svg="http://www.w3.org/2000/svg">
  <sodipodi:namedview
     id="namedview1"
     pagecolor="#ffffff"
     bordercolor="#666666"
     borderopacity="1.0"
     inkscape:showpageshadow="2"
     inkscape:pageopacity="0.0"
     inkscape:pagecheckerboard="0"
     inkscape:deskcolor="#d1d1d1"
     inkscape:document-units="mm"
     inkscape:zoom="5.1907531"
     inkscape:cx="12.040642"
     inkscape:cy="12.714918"
     inkscape:window-width="1750"
     inkscape:window-height="1310"
     inkscape:window-x="26"
     inkscape:window-y="23"
     inkscape:window-maximized="0"
     inkscape:current-layer="layer1" />
  <defs
     id="defs1">
    <linearGradient
       id="linearGradient35"
       inkscape:collect="always">
      <stop
         style="stop-color:#d44a4a;stop-opacity:1;"
         offset="0"
         id="stop35" />
      <stop
         style="stop-color:#782121;stop-opacity:1;"
         offset="1"
         id="stop36" />
    </linearGradient>
    <linearGradient
       inkscape:collect="always"
       xlink:href="#linearGradient35"
       id="linearGradient36"
       x1="50.002342"
       y1="1.0183415"
       x2="50.002342"
       y2="100"
       gradientUnits="userSpaceOnUse" />
    <linearGradient
       inkscape:collect="always"
       xlink:href="#linearGradient35"
       id="linearGradient37"
       gradientUnits="userSpaceOnUse"
       x1="50.002342"
       y1="1.0183415"
       x2="50.002342"
       y2="100" />
    <linearGradient
       inkscape:collect="always"
       xlink:href="#linearGradient35"
       id="linearGradient38"
       gradientUnits="userSpaceOnUse"
       x1="50.002342"
       y1="1.0183415"
       x2="50.002342"
       y2="100" />
    <linearGradient
       inkscape:collect="always"
       xlink:href="#linearGradient35"
       id="linearGradient39"
       gradientUnits="userSpaceOnUse"
       x1="50.002342"
       y1="1.0183415"
       x2="50.002342"
       y2="100" />
    <linearGradient
       inkscape:collect="always"
       xlink:href="#linearGradient35"
       id="linearGradient40"
       gradientUnits="userSpaceOnUse"
       x1="50.002342"
       y1="1.0183415"
       x2="50.002342"
       y2="100" />
    <linearGradient
       inkscape:collect="always"
       xlink:href="#linearGradient35"
       id="linearGradient41"
       gradientUnits="userSpaceOnUse"
       x1="50.002342"
       y1="1.0183415"
       x2="50.002342"
       y2="100" />
    <linearGradient
       inkscape:collect="always"
       xlink:href="#linearGradient35"
       id="linearGradient42"
       gradientUnits="userSpaceOnUse"
       x1="50.002342"
       y1="1.0183415"
       x2="50.002342"
       y2="100" />
    <linearGradient
       inkscape:collect="always"
       xlink:href="#linearGradient35"
       id="linearGradient43"
       gradientUnits="userSpaceOnUse"
       x1="50.002342"
       y1="1.0183415"
       x2="50.002342"
       y2="100" />
    <linearGradient
       inkscape:collect="always"
       xlink:href="#linearGradient35"
       id="linearGradient44"
       gradientUnits="userSpaceOnUse"
       x1="50.002342"
       y1="1.0183415"
       x2="50.002342"
       y2="100" />
    <linearGradient
       inkscape:collect="always"
       xlink:href="#linearGradient35"
       id="linearGradient45"
       gradientUnits="userSpaceOnUse"
       x1="50.002342"
       y1="1.0183415"
       x2="50.002342"
       y2="100" />
  </defs>
  <g
     inkscape:label="Outline"
     inkscape:groupmode="layer"
     id="layer1"
     style="display:none"
     transform="matrix(1.098316,0,0,1.098316,-4.1983091,-5.5647346)"
     sodipodi:insensitive="true">
    <path
       id="path2"
       style="display:inline;fill:none;stroke:#00ff00;stroke-width:1.51181;stroke-linecap:butt;stroke-linejoin:miter;stroke-dasharray:none;stroke-opacity:1"
       d="M 80.460059,96.204749 V 8.194563 C 80.342966,4.6785019 78.408725,4.740538 76.574858,4.6049157 H 49.34673 v 0 H 22.118613 C 20.284745,4.7405374 18.350495,4.678459 18.233412,8.194563 v 88.010186"
       sodipodi:nodetypes="cccccccc" />
    <path
       style="font-variation-settings:normal;display:inline;fill:none;fill-opacity:1;stroke:#00ff00;stroke-width:1.51181;stroke-linecap:butt;stroke-linejoin:miter;stroke-miterlimit:4;stroke-dasharray:none;stroke-dashoffset:0;stroke-opacity:1;stop-color:#000000"
       d="M 18.233412,15.585695 H 80.460059"
       id="path3" />
    <g
       id="g7"
       style="display:inline;stroke-width:1.32144;stroke-dasharray:none"
       transform="matrix(0.57626499,0,0,0.56782387,-13.633898,-11.282245)">
      <circle
         style="font-variation-settings:normal;opacity:1;fill:none;fill-opacity:1;stroke:#00ff00;stroke-width:1.32144;stroke-linecap:butt;stroke-linejoin:miter;stroke-miterlimit:4;stroke-dasharray:none;stroke-dashoffset:0;stroke-opacity:1"
         id="path6"
         cx="78.02063"
         cy="157.45969"
         r="4.0208001" />
      <circle
         style="font-variation-settings:normal;opacity:1;fill:none;fill-opacity:1;stroke:#00ff00;stroke-width:1.32144;stroke-linecap:butt;stroke-linejoin:miter;stroke-miterlimit:4;stroke-dasharray:none;stroke-dashoffset:0;stroke-opacity:1"
         id="circle6"
         cx="66.941277"
         cy="157.45969"
         r="4.0208001" />
      <g
         id="g29"
         transform="translate(0,0.2069397)">
        <circle
           style="font-variation-settings:normal;opacity:1;fill:none;fill-opacity:1;stroke:#00ff00;stroke-width:1.32144;stroke-linecap:butt;stroke-linejoin:miter;stroke-miterlimit:4;stroke-dasharray:none;stroke-dashoffset:0;stroke-opacity:1"
           id="path7"
           cx="59.39217"
           cy="154.7083"
           r="0.966703" />
        <circle
           style="font-variation-settings:normal;opacity:1;fill:none;fill-opacity:1;stroke:#00ff00;stroke-width:1.32144;stroke-linecap:butt;stroke-linejoin:miter;stroke-miterlimit:4;stroke-dasharray:none;stroke-dashoffset:0;stroke-opacity:1"
           id="circle7"
           cx="59.39217"
           cy="159.7972"
           r="0.966703" />
      </g>
    </g>
    <g
       id="g28">
      <path
         style="font-variation-settings:normal;display:inline;fill:none;fill-opacity:1;stroke:#00ff00;stroke-width:1.51181;stroke-linecap:butt;stroke-linejoin:miter;stroke-miterlimit:4;stroke-dasharray:none;stroke-dashoffset:0;stroke-opacity:1;stop-color:#000000"
         d="M 18.233412,73.308895 H 80.460059"
         id="path5" />
      <path
         style="font-variation-settings:normal;display:inline;fill:none;fill-opacity:1;stroke:#00ff00;stroke-width:1.51181;stroke-linecap:butt;stroke-linejoin:miter;stroke-miterlimit:4;stroke-dasharray:none;stroke-dashoffset:0;stroke-opacity:1;stop-color:#000000"
         d="M 18.233412,82.945351 H 80.460059"
         id="path11" />
    </g>
    <g
       id="g16"
       transform="matrix(0.57626499,0,0,0.56782387,-15.509654,-11.012953)"
       style="display:inline;stroke-width:1.32144;stroke-dasharray:none">
      <rect
         style="font-variation-settings:normal;display:inline;opacity:1;fill:none;fill-opacity:1;stroke:#00ff00;stroke-width:1.32144;stroke-linecap:butt;stroke-linejoin:miter;stroke-miterlimit:4;stroke-dasharray:none;stroke-dashoffset:0;stroke-opacity:1"
         id="rect11"
         width="44.411598"
         height="17.566227"
         x="90.340317"
         y="171.25587" />
      <circle
         style="font-variation-settings:normal;display:inline;opacity:1;fill:none;fill-opacity:1;stroke:#00ff00;stroke-width:1.32144;stroke-linecap:butt;stroke-linejoin:miter;stroke-miterlimit:4;stroke-dasharray:none;stroke-dashoffset:0;stroke-opacity:1"
         id="path12"
         cx="105.28305"
         cy="180.03899"
         r="4.7818184" />
      <rect
         style="font-variation-settings:normal;display:inline;opacity:1;fill:none;fill-opacity:1;stroke:#00ff00;stroke-width:1.32144;stroke-linecap:butt;stroke-linejoin:miter;stroke-miterlimit:4;stroke-dasharray:none;stroke-dashoffset:0;stroke-opacity:1"
         id="rect12"
         width="10.202359"
         height="10.202359"
         x="113.90876"
         y="174.93781" />
      <path
         style="font-variation-settings:normal;display:inline;opacity:1;fill:none;fill-opacity:1;stroke:#00ff00;stroke-width:1.32144;stroke-linecap:butt;stroke-linejoin:miter;stroke-miterlimit:4;stroke-dasharray:none;stroke-dashoffset:0;stroke-opacity:1;stop-color:#000000;stop-opacity:1"
         d="M 96.475382,171.25587 V 188.8221"
         id="path13" />
      <path
         style="font-variation-settings:normal;display:inline;opacity:1;fill:none;fill-opacity:1;stroke:#00ff00;stroke-width:1.32144;stroke-linecap:butt;stroke-linejoin:miter;stroke-miterlimit:4;stroke-dasharray:none;stroke-dashoffset:0;stroke-opacity:1;stop-color:#000000;stop-opacity:1"
         d="M 128.57542,171.25587 V 188.8221"
         id="path14" />
    </g>
    <path
       style="font-variation-settings:normal;display:inline;fill:none;fill-opacity:1;stroke:#00ff00;stroke-width:1.51181;stroke-linecap:butt;stroke-linejoin:miter;stroke-miterlimit:4;stroke-dasharray:none;stroke-dashoffset:0;stroke-opacity:1;stop-color:#000000"
       d="m 35.705381,73.308895 v 9.636456"
       id="path15" />
    <path
       style="font-variation-settings:normal;display:inline;fill:none;fill-opacity:1;stroke:#00ff00;stroke-width:1.51181;stroke-linecap:butt;stroke-linejoin:miter;stroke-miterlimit:4;stroke-dasharray:none;stroke-dashoffset:0;stroke-opacity:1;stop-color:#000000"
       d="m 62.935568,73.308895 v 9.636456"
       id="path16" />
    <path
       id="path27"
       style="display:inline;fill:none;stroke:#00ff00;stroke-width:1.51181;stroke-linecap:butt;stroke-linejoin:miter;stroke-dasharray:none;stroke-opacity:1"
       d="m 80.460059,49.422014 v 3.414758 c -0.117093,3.51606 -2.051334,3.45402 -3.885201,3.58965 H 49.34673 v 0 H 22.118613 c -1.833868,-0.13563 -3.768118,-0.0735 -3.885201,-3.58965 v -3.414758"
       sodipodi:nodetypes="cccccccc" />
    <g
       id="g33"
       style="display:inline;stroke-width:1.32144;stroke-dasharray:none"
       transform="matrix(-0.57626499,0,0,0.56782387,112.16914,-11.282245)">
      <circle
         style="font-variation-settings:normal;opacity:1;fill:none;fill-opacity:1;stroke:#00ff00;stroke-width:1.32144;stroke-linecap:butt;stroke-linejoin:miter;stroke-miterlimit:4;stroke-dasharray:none;stroke-dashoffset:0;stroke-opacity:1"
         id="circle29"
         cx="78.02063"
         cy="157.45969"
         r="4.0208001" />
      <circle
         style="font-variation-settings:normal;opacity:1;fill:none;fill-opacity:1;stroke:#00ff00;stroke-width:1.32144;stroke-linecap:butt;stroke-linejoin:miter;stroke-miterlimit:4;stroke-dasharray:none;stroke-dashoffset:0;stroke-opacity:1"
         id="circle30"
         cx="66.941277"
         cy="157.45969"
         r="4.0208001" />
      <g
         id="g32"
         transform="translate(0,0.2069397)">
        <circle
           style="font-variation-settings:normal;opacity:1;fill:none;fill-opacity:1;stroke:#00ff00;stroke-width:1.32144;stroke-linecap:butt;stroke-linejoin:miter;stroke-miterlimit:4;stroke-dasharray:none;stroke-dashoffset:0;stroke-opacity:1"
           id="circle31"
           cx="59.39217"
           cy="154.7083"
           r="0.966703" />
        <circle
           style="font-variation-settings:normal;opacity:1;fill:none;fill-opacity:1;stroke:#00ff00;stroke-width:1.32144;stroke-linecap:butt;stroke-linejoin:miter;stroke-miterlimit:4;stroke-dasharray:none;stroke-dashoffset:0;stroke-opacity:1"
           id="circle32"
           cx="59.39217"
           cy="159.7972"
           r="0.966703" />
      </g>
    </g>
  </g>
  <g
     inkscape:groupmode="layer"
     id="layer3"
     inkscape:label="Fill"
     style="display:inline;fill:url(#linearGradient36);stroke-width:1.00157;stroke-dasharray:none"
     transform="translate(0,-0.41338608)">
    <path
       style="display:inline;fill:url(#linearGradient37);stroke:none;stroke-width:1.00157;stroke-dasharray:none"
       d="m 16.774923,6.7657312 0.03613,-4.2666097 0.294249,-0.5296481 c 0.217296,-0.3911247 0.448169,-0.6066055 0.882752,-0.823897 L 18.576556,0.8513275 H 50.002343 81.42813 l 0.588499,0.2942489 c 0.470797,0.2353992 0.647346,0.4119486 0.882745,0.8827468 l 0.294249,0.5884979 0.03497,4.2077601 0.03497,4.2077598 H 50.001173 16.738782 Z"
       id="path1" />
    <path
       style="display:inline;fill:url(#linearGradient38);stroke:none;stroke-width:1.00157;stroke-dasharray:none"
       d="m 16.752213,66.115743 v -8.356671 h 33.25013 33.25013 v 8.356671 8.356669 h -33.25013 -33.25013 z"
       id="path9" />
    <path
       style="display:inline;fill:url(#linearGradient39);stroke:none;stroke-width:1.00157;stroke-dasharray:none"
       d="m 40.304605,95.009567 v -4.990433 h 9.687311 9.68731 V 95.009567 100 h -9.68731 -9.687311 z m 17.49587,0.0587 v -3.64008 h -3.698792 -3.698791 v 3.64008 3.640081 h 3.698791 3.698792 z m -11.300464,3.226529 c 0.857215,-0.254566 1.8183,-1.156584 2.13543,-2.004191 0.350239,-0.936098 0.31973,-1.818698 -0.09303,-2.69118 -0.608498,-1.286234 -1.704834,-1.974184 -3.147471,-1.975038 -1.967803,-0.0012 -3.446428,1.48696 -3.446428,3.468569 0,2.312898 2.239613,3.888396 4.551499,3.20184 z"
       id="path23" />
    <path
       style="display:inline;fill:url(#linearGradient40);stroke:none;stroke-width:1.00157;stroke-dasharray:none"
       d="m 36.42968,95.009567 v -4.990433 h 1.467774 1.467775 V 95.009567 100 H 37.897454 36.42968 Z"
       id="path24" />
    <path
       style="display:inline;fill:url(#linearGradient41);stroke:none;stroke-width:1.00157;stroke-dasharray:none"
       d="m 60.618601,95.009567 v -4.990433 h 1.467774 1.467774 V 95.009567 100 h -1.467774 -1.467774 z"
       id="path25" />
    <path
       style="display:inline;fill:url(#linearGradient42);stroke:none;stroke-width:1.00157;stroke-dasharray:none"
       d="m 35.842571,80.68409 v -4.403323 h 14.090633 14.090633 v 4.403323 4.403323 H 49.933204 35.842571 Z"
       id="path26" />
    <path
       style="display:inline;fill:url(#linearGradient43);stroke:none;stroke-width:1.00157;stroke-dasharray:none"
       d="m 18.69092,55.804992 c -1.17596,-0.199956 -1.695467,-0.812171 -1.902077,-2.241518 -0.07588,-0.524961 -0.121026,-8.17273 -0.122534,-20.758828 l -0.0024,-19.927651 h 33.283125 33.2831 l -7.24e-4,20.470311 c -4.83e-4,13.709042 -0.04181,20.61844 -0.125226,20.918783 -0.160944,0.579506 -0.655013,1.161213 -1.194972,1.406937 -0.389763,0.177374 -3.187271,0.196125 -31.54016,0.211397 -17.111854,0.0092 -31.367029,-0.02652 -31.678167,-0.07943 z"
       id="path28" />
    <path
       style="display:inline;fill:url(#linearGradient44);stroke:none;stroke-width:1.00157;stroke-dasharray:none"
       d="m 16.684342,80.661522 v -4.393344 h 8.729634 8.729635 v 4.393344 4.393346 h -8.729634 -8.729634 z m 7.816731,2.637915 c 1.034263,-0.488949 1.647539,-1.442057 1.652131,-2.567618 0.0035,-0.860319 -0.19569,-1.430461 -0.699932,-2.003308 -1.112004,-1.263304 -3.128788,-1.356011 -4.36149,-0.200486 -1.092265,1.023879 -1.157593,2.891475 -0.143174,4.093072 0.780221,0.924186 2.384462,1.230514 3.552465,0.67834 z m 6.963418,0.05845 c 0.568093,-0.258067 1.126086,-0.805447 1.453425,-1.42578 0.388491,-0.73622 0.355192,-1.886667 -0.07726,-2.668961 -0.556876,-1.007398 -1.467012,-1.539282 -2.633948,-1.539282 -1.166936,0 -2.077071,0.531884 -2.633949,1.539282 -0.42995,0.777789 -0.465574,1.933232 -0.082,2.659656 0.320283,0.606558 0.893846,1.168768 1.460704,1.431791 0.61516,0.285437 1.888249,0.287106 2.513015,0.0033 z M 19.114849,83.028011 c 0.753529,-0.67848 0.259777,-1.852978 -0.778982,-1.852978 -0.428695,0 -0.966847,0.570931 -0.966847,1.02574 0,0.467927 0.16168,0.755485 0.544905,0.969137 0.364999,0.203492 0.885653,0.141973 1.200924,-0.141899 z m -0.01311,-3.207874 c 0.286433,-0.255928 0.36696,-0.419382 0.36696,-0.744846 0,-0.940378 -1.221508,-1.418945 -1.826505,-0.715594 -0.878921,1.021805 0.455768,2.357313 1.459545,1.46044 z"
       id="path33" />
    <path
       style="display:inline;fill:url(#linearGradient45);stroke:none;stroke-width:1.00157;stroke-dasharray:none"
       d="m 65.752874,80.661522 v -4.393344 h 8.786689 8.786691 v 4.393344 4.393346 h -8.786691 -8.786689 z m 5.078022,2.696791 c 1.117878,-0.509589 1.770549,-1.503858 1.766244,-2.690668 -0.0098,-2.708843 -3.379119,-3.992091 -5.197373,-1.979501 -0.557199,0.616754 -0.748256,1.120625 -0.748256,1.973378 0,0.837514 0.182716,1.334536 0.712365,1.937772 0.795219,0.905704 2.382799,1.253266 3.46702,0.759019 z m 6.833533,0.07284 c 0.718306,-0.214479 1.602328,-1.136056 1.8283,-1.905969 0.226134,-0.770461 0.226472,-0.957478 0.0031,-1.709634 -0.517643,-1.743089 -2.542331,-2.601757 -4.210426,-1.785635 -2.18271,1.067901 -2.204137,4.166944 -0.03628,5.247234 0.667963,0.33286 1.614233,0.393196 2.415297,0.154004 z m 4.440722,-0.403145 c 0.753528,-0.678481 0.259775,-1.852978 -0.778982,-1.852978 -0.428696,0 -0.966849,0.570931 -0.966849,1.025739 0,0.467928 0.161681,0.755486 0.544906,0.969138 0.365,0.203491 0.885653,0.141973 1.200925,-0.141899 z m -0.01311,-3.207874 c 0.286433,-0.255928 0.366962,-0.419382 0.366962,-0.744846 0,-0.940378 -1.22151,-1.418945 -1.826505,-0.715595 -0.878922,1.021805 0.455767,2.357314 1.459543,1.460441 z"
       id="path34" />
  </g>
</svg>
